<mxfile host="app.diagrams.net" modified="2023-06-24T07:40:25.609Z" agent="Mozilla/5.0 (Macintosh; Intel Mac OS X 10_15_7) AppleWebKit/537.36 (KHTML, like Gecko) Chrome/114.0.0.0 Safari/537.36" etag="FcCsdURYvcmPg_a911IN" version="21.3.8" type="device">
  <diagram name="Strona-1" id="EkQ_3gGjg8_8Lx5Ib0JB">
    <mxGraphModel dx="1434" dy="796" grid="1" gridSize="10" guides="1" tooltips="1" connect="1" arrows="1" fold="1" page="1" pageScale="1" pageWidth="827" pageHeight="1169" math="0" shadow="0">
      <root>
        <mxCell id="0" />
        <mxCell id="1" parent="0" />
        <mxCell id="nEQjsFfrjzSWuKLqf9r9-1" value="user1" style="rounded=0;whiteSpace=wrap;html=1;" vertex="1" parent="1">
          <mxGeometry x="70" y="100" width="120" height="60" as="geometry" />
        </mxCell>
        <mxCell id="nEQjsFfrjzSWuKLqf9r9-2" value="user3" style="rounded=0;whiteSpace=wrap;html=1;" vertex="1" parent="1">
          <mxGeometry x="70" y="330" width="120" height="60" as="geometry" />
        </mxCell>
        <mxCell id="nEQjsFfrjzSWuKLqf9r9-3" value="user2" style="rounded=0;whiteSpace=wrap;html=1;" vertex="1" parent="1">
          <mxGeometry x="70" y="210" width="120" height="60" as="geometry" />
        </mxCell>
        <mxCell id="nEQjsFfrjzSWuKLqf9r9-8" style="edgeStyle=orthogonalEdgeStyle;rounded=0;orthogonalLoop=1;jettySize=auto;html=1;exitX=0;exitY=0.5;exitDx=0;exitDy=0;entryX=1.025;entryY=0.383;entryDx=0;entryDy=0;entryPerimeter=0;" edge="1" parent="1" source="nEQjsFfrjzSWuKLqf9r9-4" target="nEQjsFfrjzSWuKLqf9r9-1">
          <mxGeometry relative="1" as="geometry" />
        </mxCell>
        <mxCell id="nEQjsFfrjzSWuKLqf9r9-4" value="wyjdz z psem" style="shape=hexagon;perimeter=hexagonPerimeter2;whiteSpace=wrap;html=1;fixedSize=1;" vertex="1" parent="1">
          <mxGeometry x="600" y="80" width="120" height="80" as="geometry" />
        </mxCell>
        <mxCell id="nEQjsFfrjzSWuKLqf9r9-9" style="edgeStyle=orthogonalEdgeStyle;rounded=0;orthogonalLoop=1;jettySize=auto;html=1;exitX=0;exitY=0.5;exitDx=0;exitDy=0;entryX=1;entryY=0.75;entryDx=0;entryDy=0;" edge="1" parent="1" source="nEQjsFfrjzSWuKLqf9r9-5" target="nEQjsFfrjzSWuKLqf9r9-1">
          <mxGeometry relative="1" as="geometry">
            <mxPoint x="210" y="140" as="targetPoint" />
          </mxGeometry>
        </mxCell>
        <mxCell id="nEQjsFfrjzSWuKLqf9r9-5" value="wyslij raport" style="shape=hexagon;perimeter=hexagonPerimeter2;whiteSpace=wrap;html=1;fixedSize=1;" vertex="1" parent="1">
          <mxGeometry x="590" y="220" width="120" height="80" as="geometry" />
        </mxCell>
        <mxCell id="nEQjsFfrjzSWuKLqf9r9-12" style="edgeStyle=orthogonalEdgeStyle;rounded=0;orthogonalLoop=1;jettySize=auto;html=1;exitX=0;exitY=0.5;exitDx=0;exitDy=0;entryX=1.008;entryY=0.133;entryDx=0;entryDy=0;entryPerimeter=0;" edge="1" parent="1" source="nEQjsFfrjzSWuKLqf9r9-6" target="nEQjsFfrjzSWuKLqf9r9-1">
          <mxGeometry relative="1" as="geometry" />
        </mxCell>
        <mxCell id="nEQjsFfrjzSWuKLqf9r9-6" value="umyj naczynia" style="shape=hexagon;perimeter=hexagonPerimeter2;whiteSpace=wrap;html=1;fixedSize=1;" vertex="1" parent="1">
          <mxGeometry x="590" y="350" width="120" height="80" as="geometry" />
        </mxCell>
        <mxCell id="nEQjsFfrjzSWuKLqf9r9-13" style="edgeStyle=orthogonalEdgeStyle;rounded=0;orthogonalLoop=1;jettySize=auto;html=1;exitX=0;exitY=0.5;exitDx=0;exitDy=0;entryX=1;entryY=0.5;entryDx=0;entryDy=0;" edge="1" parent="1" source="nEQjsFfrjzSWuKLqf9r9-7" target="nEQjsFfrjzSWuKLqf9r9-2">
          <mxGeometry relative="1" as="geometry">
            <Array as="points">
              <mxPoint x="330" y="510" />
              <mxPoint x="330" y="360" />
            </Array>
          </mxGeometry>
        </mxCell>
        <mxCell id="nEQjsFfrjzSWuKLqf9r9-7" value="odkurz dom" style="shape=hexagon;perimeter=hexagonPerimeter2;whiteSpace=wrap;html=1;fixedSize=1;" vertex="1" parent="1">
          <mxGeometry x="590" y="470" width="120" height="80" as="geometry" />
        </mxCell>
        <mxCell id="nEQjsFfrjzSWuKLqf9r9-15" value="One" style="text;html=1;strokeColor=none;fillColor=none;align=center;verticalAlign=middle;whiteSpace=wrap;rounded=0;fontSize=28;" vertex="1" parent="1">
          <mxGeometry x="100" y="20" width="60" height="30" as="geometry" />
        </mxCell>
        <mxCell id="nEQjsFfrjzSWuKLqf9r9-16" value="Many" style="text;html=1;align=center;verticalAlign=middle;resizable=0;points=[];autosize=1;strokeColor=none;fillColor=none;fontSize=28;" vertex="1" parent="1">
          <mxGeometry x="595" y="8" width="90" height="50" as="geometry" />
        </mxCell>
      </root>
    </mxGraphModel>
  </diagram>
</mxfile>
